<svg xmlns="http://www.w3.org/2000/svg" viewBox="0 0 260.64 361.42"><defs><style>.cls-1{fill:#fbc0a2;}.cls-2{fill:#e09f80;}.cls-3{fill:#141112;}.cls-4{fill:#9e7331;}.cls-5{fill:#231f20;}.cls-6{fill:#ea7e73;}.cls-7{fill:#855914;}.cls-8{fill:#1d5a73;}.cls-9{fill:#256c87;}.cls-10{fill:#f5faf4;}.cls-11{fill:#abc8e9;}</style></defs><title>Asset 1</title><g id="Layer_2" data-name="Layer 2"><g id="OBJECTS"><path class="cls-1" d="M138.92,68.36,121.07,52.09A88,88,0,0,1,105.79,91,35.38,35.38,0,0,0,123.6,104.3,156.07,156.07,0,0,1,138.92,68.36Z"/><path class="cls-2" d="M127.4,92.62a164.55,164.55,0,0,1,11.52-24.27L121.07,52.09a87.33,87.33,0,0,1-3.42,15.08c1.47,9.1,4.13,17.83,9.55,25.18Z"/><path class="cls-3" d="M102.46,44.09A118.4,118.4,0,0,0,93.65,24c4.95-13.22,18-23.13,32.08-24,2.94,6.52,6.65,12.33,10.44,18.4C122.5,22.88,109.86,31.76,102.46,44.09Z"/><path class="cls-1" d="M151,41c.13-5.37-.46-11.06-3.88-15.31-5.35-6.63-16.22-7.45-24.39-4-10.14,4.35-17.13,14.61-17,25a27.59,27.59,0,0,0,5,14.76c-.66,1.57.25,3.4,1.41,4.65s3.2,3,5.16,2.82c7.1,6.23,16.55,10,25.66,8.36,4.61-.83,9.36-3.41,10.68-7.64s-1.08-8.44-2.15-12.65C150.12,51.87,150.83,46.41,151,41Z"/><path class="cls-4" d="M117.42,38.87c-1.79-3.21-.47-7.55,2.37-9.88s6.81-2.91,10.45-2.37a39.73,39.73,0,0,1,10.39,3.6,34.18,34.18,0,0,0,11.1-14.77c1.1-2.85,1.65-6.49-.54-8.62s-5.47-1.54-8.24-.69a49.71,49.71,0,0,0-21,13,6.62,6.62,0,0,0,1.78-3.41c.11-1.3-.92-2.77-2.21-2.59a3.15,3.15,0,0,0-1.86,1.35,29.27,29.27,0,0,0-6,13.23,37.88,37.88,0,0,0-9.89,3.68c-3,1.82-5.6,4.69-6.26,8.16-.69,3.63.79,7.31,2.64,10.51a44.53,44.53,0,0,0,10.23,12.07,3.88,3.88,0,0,1,3.59-3,4.11,4.11,0,0,1,3.94,2.77l3-.36c-1.91-2.11-3.82-4.5-4-7.34-.21-3.13,1.73-6,2.12-9.11C119.33,42.73,118.58,40.94,117.42,38.87Z"/><path class="cls-4" d="M134.09,35.64a9.79,9.79,0,0,0-7.61,5.17.47.47,0,0,0,.59.61,17.14,17.14,0,0,0,3.07-2.24,7.53,7.53,0,0,1,4.17-1.62C135.56,37.47,135.33,35.54,134.09,35.64Z"/><path class="cls-4" d="M150.65,34.59c-1.85-1.22-4.72-1.72-6.6-.33-.43.32-.16,1.15.41,1a6.78,6.78,0,0,1,5.15.61C150.51,36.45,151.55,35.18,150.65,34.59Z"/><circle class="cls-5" cx="131.17" cy="51.13" r="1.86" transform="translate(-4.99 15.34) rotate(-6.57)"/><circle class="cls-5" cx="147.81" cy="47.93" r="1.86" transform="translate(-4.51 17.23) rotate(-6.57)"/><path class="cls-6" d="M146.89,54.44c-.63.75-1.79-.18-2.2-.74a11.31,11.31,0,0,1-1.07-1.92,3.44,3.44,0,0,0-1-1.61.88.88,0,0,0-1.19.14c-.8.83-.31,2.29,0,3.23a7,7,0,0,0,1.87,3c1.66,1.43,4.43,1.62,5.82-.26A1.44,1.44,0,0,0,146.89,54.44Z"/><path class="cls-6" d="M130.71,54.41a1.88,1.88,0,0,0-1.65.17.68.68,0,0,0,.13,1.16,1.88,1.88,0,0,0,1.64-.21A.66.66,0,0,0,130.71,54.41Z"/><path class="cls-6" d="M150.35,50.26a.78.78,0,0,0-.57-.18,1.3,1.3,0,0,0-.41.05,1,1,0,0,0-.42.29.62.62,0,0,0,.1.87,1,1,0,0,0,.85.16.8.8,0,0,0,.53-.29.69.69,0,0,0,.15-.49A.72.72,0,0,0,150.35,50.26Z"/><path class="cls-4" d="M121.49,62.67c-.93.27-1.9.39-2.85.61-.43.1-.54.82,0,.85a4.55,4.55,0,0,0,3.22-.82A.37.37,0,0,0,121.49,62.67Z"/><path class="cls-4" d="M123.1,64.31c-1-.15-2,.59-3,.75-.45.07-.52.81,0,.85a4.14,4.14,0,0,0,3.22-1.1A.31.31,0,0,0,123.1,64.31Z"/><path class="cls-7" d="M140,65.88c-7.08,0-8.13-6-8.14-6a.6.6,0,0,1,1.18-.19c0,.25,1.12,6.11,9.09,4.86a.6.6,0,0,1,.68.5.6.6,0,0,1-.5.68A14.87,14.87,0,0,1,140,65.88Z"/><path class="cls-1" d="M170.55,103.69c.49-3.47,5.26-5.25,9.44-4.07a13.52,13.52,0,0,1,8.71,8.17c2.56,7.05-4.19,16.85-14.06,12.06C169.46,117.33,163.12,105.14,170.55,103.69Z"/><path class="cls-2" d="M187.51,116.76c-4.17-4.4-12.08-5.66-19.17-4.25,1.44,3.17,4,6.22,6.3,7.34C180.41,122.65,185.11,120.46,187.51,116.76Z"/><path class="cls-1" d="M1.22,140c-1.38,2.84-1.77,6.36-.21,9.11,1.23,2.17,3.45,3.55,5.58,4.84,1.54.94,3.2,1.9,5,1.88s3.72-1.49,3.51-3.28c.53,1.27,2.53,1.2,3.45.18a6.22,6.22,0,0,0,1.15-3.87,33.44,33.44,0,0,0-.13-8.22,11.25,11.25,0,0,0-3.93-7C9.66,129.07,3.78,134.74,1.22,140Z"/><path class="cls-2" d="M19.88,143.75a20.53,20.53,0,0,0-.31-3.11,11.25,11.25,0,0,0-3.93-7c-5.49-4.16-10.89.28-13.72,5.11C7.34,141.66,14.48,143.23,19.88,143.75Z"/><path class="cls-2" d="M44.08,349.73l0,0c-.81-1.83-1.66-3.64-2.54-5.44-.93-3.61-3.75-7.26-5.27-10.08a21.88,21.88,0,0,1-2.82-11.05,14.21,14.21,0,0,1,1.31-4.82c7.44-5.8,15.09-11.11,23.16-16.21-4-3.46-9.51-4.73-14.75-5.24a198.56,198.56,0,0,1-19.86,18.69c-1.67-1.53-5.1-.69-6.6,1A7.25,7.25,0,0,0,15.44,323a21.44,21.44,0,0,0,2.93,6.11l8.62,14c2.26,3.66,4.57,7.38,7.88,10.12A16.41,16.41,0,0,0,39.59,356l.56.34c2.09,1.17,4.7,2.4,7.13,1.77a3.11,3.11,0,0,0,1.36-5.16A22.08,22.08,0,0,0,44.08,349.73Z"/><path class="cls-7" d="M50.58,359.38c-.15-.93-1.12-1.44-2-1.84a75.67,75.67,0,0,1-14.74-9.08,22,22,0,0,1,4.74-2.36c2.91-.93,4.12-.16,4.87,2.72.58,2.25,4.35,1.86,4.15-.56-.8-9.44-11.76-7.41-16.44-2a77,77,0,0,1-20-26.66c-.35-.77-1.92,1.63-2,1.85-.4,1.22.34,2,.74,3.13a37.77,37.77,0,0,0,3.37,6.17,79.48,79.48,0,0,0,32.52,29.88,5.45,5.45,0,0,0,2.92.78A2,2,0,0,0,50.58,359.38Z"/><path class="cls-1" d="M256.72,307.47a3.45,3.45,0,0,0-5.42-2.37,24.48,24.48,0,0,0-4.25,4.47l0,0c-2.14.57-4.27,1.2-6.39,1.86-4.12.41-8.59,2.87-11.94,4.05a24.25,24.25,0,0,1-12.59,1.21,15.75,15.75,0,0,1-5.05-2.26c-5.09-9.14-9.59-18.42-13.8-28.12-4.46,3.77-6.8,9.61-8.26,15.26a220.08,220.08,0,0,1,16.84,24.53c0,.19,1.23,8.78,1.83,9.14,1.08,2.28,3.11,3.53,7.36,2.42a84,84,0,0,0,14.3-5.55c3.22-1.53,8.07-3.27,10.55-6.28a35.81,35.81,0,0,0,9.41-5.61,18.19,18.19,0,0,0,3.82-4.71c.16-.18.32-.37.47-.56C255.21,312.89,257,310.24,256.72,307.47Z"/><path class="cls-7" d="M258.74,304.09c-1,0-1.77,1-2.35,1.85a83.88,83.88,0,0,1-12.46,14.59,24.45,24.45,0,0,1-1.77-5.6c-.53-3.35.52-4.54,3.81-4.87,2.56-.25,2.78-4.45.09-4.64-10.48-.74-10.12,11.61-5,17.67a85.32,85.32,0,0,1-32.61,17.37c-.9.25,1.46,2.38,1.69,2.5,1.27.65,2.28,0,3.55-.28a41.87,41.87,0,0,0,7.33-2.64,88.09,88.09,0,0,0,38.26-30.52,6,6,0,0,0,1.36-3.07A2.18,2.18,0,0,0,258.74,304.09Z"/><path class="cls-2" d="M197.26,286.33c-4.46,3.77-6.8,9.61-8.26,15.26,2.55,3.22,5,6.53,7.35,9.89a93,93,0,0,0,8.76-8.35C202.36,297.64,199.75,292.07,197.26,286.33Z"/><path class="cls-8" d="M142.72,216.4c15,6.09,31.15,12,41,24.85,12.1,15.87,11.9,39.14,25.62,53.63C159.06,328.38,89.65,330.46,37.51,300l26-28.4a149.06,149.06,0,0,1-12.9-31.79c-3.42-12.34-5.21-25.54-1.92-37.92s12.5-23.76,24.95-26.78c14.19-3.45,24.59,6.13,32.81,16.19C116.29,203.4,128.4,210.59,142.72,216.4Z"/><path class="cls-9" d="M49,218.47c13.79,25.34,43.29,36.71,67.18,52.88a167.46,167.46,0,0,1,44.75,44.88,157.44,157.44,0,0,0,48.39-21.35c-13.72-14.49-13.52-37.77-25.62-53.63-9.81-12.86-26-18.76-41-24.85-14.32-5.82-26.43-13-36.28-25.06-8.22-10.06-18.62-19.64-32.81-16.19-12.45,3-21.66,14.4-24.95,26.78A53.49,53.49,0,0,0,47,214.41C47.59,215.78,48.25,217.14,49,218.47Z"/><path class="cls-10" d="M166,113.29,149.2,135.42c-7.64-4.57-12.48-11.19-17.85-18.89-.17-6.35,1.54-10.31,3.13-17.27L137,88.56A56.44,56.44,0,0,1,107.18,78.2c-1.28,3.36-2.72,6.31-4,9.67-1.41,1.09-2.79,2.21-4.15,3.34C77.44,87,53.5,82.7,33.44,90.68,22.52,95,6,124.15,1.49,133.61c6.92,4.12,16.2,5.43,23.12,9.55,4-7.46,10.55-29.14,20.18-29.87,7.12-.54,20.77,5.16,27.59,7.09C58.31,140.76,37.55,206.15,35.72,231c19,17.49,77-6.9,100.64-17.37-14.21-14.7-13.14-48.51-10.23-67.27,6.11,2.28,8,4.63,13.6,8s12.09,6,18.51,4.84c7.48-1.34,13.16-7.52,17-14.05s6.58-13.8,11.27-19.77A63.7,63.7,0,0,0,166,113.29Z"/><path class="cls-11" d="M166,113.29,149.2,135.42c-7.64-4.57-12.48-11.19-17.85-18.89-.35,2.47-4.29,23-5.23,29.84,6.11,2.28,8,4.63,13.6,8s12.09,6,18.51,4.84c7.48-1.34,13.16-7.52,17-14.05s6.58-13.8,11.27-19.77A63.7,63.7,0,0,0,166,113.29Z"/><circle class="cls-11" cx="124.84" cy="116.58" r="3.29"/><circle class="cls-11" cx="119.72" cy="142.8" r="3.29"/><circle class="cls-11" cx="114.61" cy="169.02" r="3.29"/><circle class="cls-11" cx="117.65" cy="198.53" r="3.29"/><path class="cls-11" d="M92.7,181.4a2.12,2.12,0,0,0-1.53-1.53,2.16,2.16,0,0,0-2.13.56A86.39,86.39,0,0,1,81.69,187c-2.89,2.14-5.87,2.63-9.08,3.92a1.3,1.3,0,0,0-.31,2.34c6.79,4.18,15.56-5.59,19.84-9.74A2.16,2.16,0,0,0,92.7,181.4Z"/></g></g></svg>