<svg xmlns="http://www.w3.org/2000/svg" width="1367" height="1327.932" viewBox="0 0 1367 1327.932">
  <g id="Group_55" data-name="Group 55" transform="translate(-552.5 -759.242)">
    <path id="Intersection_6" data-name="Intersection 6" d="M-669.137,1396.766c-269.254-340.114-402.88-338.4-525.845-336.7-60.8.845-118.987,1.69-189.675-38.778-212.552-121.685-586.758-105.313-604.818-249.307V757.054c18.909-126.492,540.6-15.474,331.1-193.842-216.1-183.983,17.79-349.043,273.722-289.862s277.672,126.692,340.1-42.271c52.433-141.914,333.449-107.435,422.083-92.758V1451.682Q-645.171,1426.977-669.137,1396.766Z" transform="translate(2541.974 635.492)" fill="#a5d8ba"/>
    <path id="Intersection_7" data-name="Intersection 7" d="M-1266.266,232.926c-57.013-1.98-126.5-9.677-210.61-26.5-187.482-37.5-284.291-33.874-349.572-30.252-56.911,3.158-89.859,6.316-138.032-17.77-14.709-7.354-22.545-14.56-24.815-21.658v-8.925c12.287-39.36,182.44-75.914,279.7-117.176,12.2-5.177,28.51-8.3,48.05-9.719h59.629c101.026,5.488,241.817,34.312,355.623,61.279v170.72Z" transform="translate(3165.794 1363.573)" fill="#9ad2b1"/>
  </g>
</svg>
